<?xml version="1.0" encoding="UTF-8" standalone="no"?>
<!-- Created with Inkscape (http://www.inkscape.org/) -->

<svg
   width="153mm"
   height="153mm"
   viewBox="0 0 153 152.99999"
   version="1.1"
   id="svg5"
   xml:space="preserve"
   sodipodi:docname="accessibility.svg"
   inkscape:version="1.2.1 (9c6d41e4, 2022-07-14)"
   xmlns:inkscape="http://www.inkscape.org/namespaces/inkscape"
   xmlns:sodipodi="http://sodipodi.sourceforge.net/DTD/sodipodi-0.dtd"
   xmlns="http://www.w3.org/2000/svg"
   xmlns:svg="http://www.w3.org/2000/svg"><sodipodi:namedview
     id="namedview7"
     pagecolor="#ffffff"
     bordercolor="#000000"
     borderopacity="0.25"
     inkscape:showpageshadow="2"
     inkscape:pageopacity="0.0"
     inkscape:pagecheckerboard="0"
     inkscape:deskcolor="#d1d1d1"
     inkscape:document-units="mm"
     showgrid="false"
     inkscape:zoom="0.82226611"
     inkscape:cx="564.2942"
     inkscape:cy="159.31582"
     inkscape:window-width="1554"
     inkscape:window-height="1014"
     inkscape:window-x="86"
     inkscape:window-y="38"
     inkscape:window-maximized="0"
     inkscape:current-layer="layer1"
     showguides="true"><sodipodi:guide
       position="580.54005,120.90405"
       orientation="1,0"
       id="guide21284"
       inkscape:locked="false" /><sodipodi:guide
       position="75.096251,125.1688"
       orientation="1,0"
       id="guide407"
       inkscape:locked="false" /><sodipodi:guide
       position="240.22719,77.335223"
       orientation="0,-1"
       id="guide1917"
       inkscape:locked="false" /><sodipodi:guide
       position="233.78042,160.46468"
       orientation="1,0"
       id="guide1919"
       inkscape:locked="false" /></sodipodi:namedview><defs
     id="defs2" /><g
     inkscape:label="Layer 1"
     inkscape:groupmode="layer"
     id="layer1"><path
       fill="#268ca6"
       d="M 0.61683365,-0.02686702 H 153.83429 V 153.19099 H 0.61683365 Z"
       id="path28473"
       style="stroke-width:20.429;fill:#000000" /><path
       fill="#ffffff"
       d="m 27.419477,19.339869 v 25.842753 h 16.48634 V 19.339869 Z m 81.430243,0 v 25.842753 h 16.58826 V 19.339869 Z M 27.419477,72.475804 v 14.361614 c 0,19.101122 4.084531,32.441302 12.257428,39.979682 8.212284,7.55829 20.531483,11.29721 36.976905,11.29721 11.644363,0 21.245695,-2.08395 28.80477,-6.29202 7.55906,-4.18798 12.78864,-9.88763 15.6285,-17.09909 2.90318,-7.29346 4.35477,-16.588333 4.35477,-27.885628 V 72.475958 H 108.8536 v 14.300307 c 0,14.749755 -2.65611,24.657855 -7.96753,29.765125 -5.250425,5.10759 -13.769249,7.64015 -25.49545,7.64015 -6.987699,0 -12.931492,-1.20529 -17.834469,-3.6367 A 22.328949,22.328949 0 0 1 47.117066,109.71746 C 44.970574,104.97818 43.912763,97.317036 43.912763,86.755263 V 72.475341 Z"
       font-family="'Arial Narrow'"
       font-size="15.533px"
       font-stretch="condensed"
       style="line-height:1.03;-inkscape-font-specification:'Arial Narrow Condensed';stroke-width:20.429"
       id="path28475" /></g></svg>
