<?xml version="1.0" encoding="UTF-8" standalone="no"?>
<svg
   id="Layer_1"
   viewBox="0 0 299.94001 300"
   width="2500"
   height="2500"
   version="1.1"
   sodipodi:docname="scrummaster.svg"
   inkscape:version="1.2.1 (9c6d41e4, 2022-07-14)"
   xml:space="preserve"
   xmlns:inkscape="http://www.inkscape.org/namespaces/inkscape"
   xmlns:sodipodi="http://sodipodi.sourceforge.net/DTD/sodipodi-0.dtd"
   xmlns="http://www.w3.org/2000/svg"
   xmlns:svg="http://www.w3.org/2000/svg"
   xmlns:rdf="http://www.w3.org/1999/02/22-rdf-syntax-ns#"
   xmlns:cc="http://creativecommons.org/ns#"
   xmlns:dc="http://purl.org/dc/elements/1.1/"><defs
     id="defs8004" /><sodipodi:namedview
     id="namedview8002"
     pagecolor="#ffffff"
     bordercolor="#000000"
     borderopacity="0.25"
     inkscape:showpageshadow="2"
     inkscape:pageopacity="0.0"
     inkscape:pagecheckerboard="0"
     inkscape:deskcolor="#d1d1d1"
     showgrid="false"
     inkscape:zoom="0.082593014"
     inkscape:cx="611.43186"
     inkscape:cy="2500.2115"
     inkscape:window-width="1355"
     inkscape:window-height="659"
     inkscape:window-x="0"
     inkscape:window-y="38"
     inkscape:window-maximized="0"
     inkscape:current-layer="Layer_1" /><style
     type="text/css"
     id="style7990">.st0{fill:#0acf83}.st1{fill:#a259ff}.st2{fill:#f24e1e}.st3{fill:#ff7262}.st4{fill:#1abcfe}</style><title
     id="title7992">Figma.logo</title><desc
     id="desc7994">Created using Figma</desc><metadata
     id="metadata8486"><rdf:RDF><cc:Work
         rdf:about=""><dc:title>Figma.logo</dc:title></cc:Work></rdf:RDF></metadata><path
     id="path7171"
     style="fill:#87deaa;fill-opacity:1;stroke-width:1.00547;stroke-linejoin:round;paint-order:stroke fill markers"
     d="m 241.69414,162.91967 v 33.5856 H 18.618119 c -0.566102,0 -1.021875,0.56 -1.021875,1.25556 v 54.29297 c 0,0.69556 0.455773,1.25556 1.021875,1.25556 H 241.69414 v 30.99065 l 47.9196,-58.87838 z" /><path
     id="path7173"
     style="fill:#87deaa;fill-opacity:1;stroke-width:1.00547;stroke-linejoin:round;paint-order:stroke fill markers"
     d="M 137.37664,18.893897 C 88.828247,18.912487 48.411728,65.596664 44.456088,126.22425 l -23.43,-2.58716 43.437891,63.91246 54.953901,-53.04748 -28.892573,-3.19047 c 1.850656,-30.70743 22.273903,-54.44088 46.851333,-54.445004 25.95238,1.7e-5 46.99096,26.360744 46.99101,58.878384 -10.97898,77.97371 -75.00533,60.76029 -126.628359,60.76029 16.918809,34.82372 47.099839,56.08115 79.637349,56.09107 51.50559,-1.1e-4 93.25905,-52.31624 93.25898,-116.85136 -5e-5,-64.535014 -41.75348,-116.850977 -93.25898,-116.851083 z"
     sodipodi:nodetypes="ccccccccccsc" /></svg>
