<?xml version="1.0" encoding="UTF-8" standalone="no"?>
<svg
   id="Layer_1"
   viewBox="0 0 299.94001 300"
   width="2500"
   height="2500"
   version="1.1"
   sodipodi:docname="cybersecurity.svg"
   inkscape:version="1.2.1 (9c6d41e4, 2022-07-14)"
   xmlns:inkscape="http://www.inkscape.org/namespaces/inkscape"
   xmlns:sodipodi="http://sodipodi.sourceforge.net/DTD/sodipodi-0.dtd"
   xmlns="http://www.w3.org/2000/svg"
   xmlns:svg="http://www.w3.org/2000/svg"
   xmlns:rdf="http://www.w3.org/1999/02/22-rdf-syntax-ns#"
   xmlns:cc="http://creativecommons.org/ns#"
   xmlns:dc="http://purl.org/dc/elements/1.1/">
  <defs
     id="defs8004" />
  <sodipodi:namedview
     id="namedview8002"
     pagecolor="#ffffff"
     bordercolor="#000000"
     borderopacity="0.25"
     inkscape:showpageshadow="2"
     inkscape:pageopacity="0.0"
     inkscape:pagecheckerboard="0"
     inkscape:deskcolor="#d1d1d1"
     showgrid="false"
     inkscape:zoom="0.0944"
     inkscape:cx="905.72034"
     inkscape:cy="248.94068"
     inkscape:window-width="1355"
     inkscape:window-height="659"
     inkscape:window-x="0"
     inkscape:window-y="38"
     inkscape:window-maximized="0"
     inkscape:current-layer="Layer_1" />
  <style
     type="text/css"
     id="style7990">.st0{fill:#0acf83}.st1{fill:#a259ff}.st2{fill:#f24e1e}.st3{fill:#ff7262}.st4{fill:#1abcfe}</style>
  <title
     id="title7992">Figma.logo</title>
  <desc
     id="desc7994">Created using Figma</desc>
  <metadata
     id="metadata8486">
    <rdf:RDF>
      <cc:Work
         rdf:about="">
        <dc:title>Figma.logo</dc:title>
      </cc:Work>
    </rdf:RDF>
  </metadata>
  <rect
     style="fill:#000080;stroke-width:0.364388;stroke-linecap:round;stroke-linejoin:round;paint-order:stroke fill markers"
     id="rect3676"
     width="298.72882"
     height="298.72882"
     x="1.2411915"
     y="6.0614923e-08" />
  <path
     id="path24031"
     style="fill:#000080;fill-opacity:1;stroke:#ffffff;stroke-width:8.38341;stroke-linecap:round;stroke-linejoin:round;stroke-dasharray:none;stroke-dashoffset:0;paint-order:stroke fill markers"
     d="M 150.50596,29.951866 A 66.563423,66.563423 0 0 0 83.9409,96.516943 66.563423,66.563423 0 0 0 150.50596,163.07768 66.563423,66.563423 0 0 0 217.06671,96.516943 66.563423,66.563423 0 0 0 150.50596,29.951866 Z m 0,23.966018 a 42.597321,42.597321 0 0 1 42.59472,42.599059 42.597321,42.597321 0 0 1 -42.59472,42.594717 42.597321,42.597321 0 0 1 -42.59904,-42.594717 42.597321,42.597321 0 0 1 42.59904,-42.599059 z" />
  <rect
     style="fill:#ea9c50;fill-opacity:1;stroke:#ffffff;stroke-width:8.38341;stroke-linecap:round;stroke-linejoin:round;stroke-dasharray:none;stroke-dashoffset:0;paint-order:stroke fill markers"
     id="rect23975"
     width="180.99913"
     height="160.3976"
     x="60.741642"
     y="99.523788" />
  <rect
     style="fill:#000080;fill-opacity:1;stroke:#ffffff;stroke-width:8.38341;stroke-linecap:round;stroke-linejoin:round;stroke-dasharray:none;stroke-dashoffset:0;paint-order:stroke fill markers"
     id="rect24029"
     width="180.99913"
     height="160.3976"
     x="60.741642"
     y="99.523788" />
  <g
     aria-label="?"
     id="g3680"
     style="font-weight:bold;font-size:5.29167px;line-height:1.03;font-family:Arial;-inkscape-font-specification:'Arial Bold';text-align:center;text-anchor:middle;fill:#ffffff;fill-opacity:1;stroke:none;stroke-linecap:round;stroke-linejoin:round;paint-order:stroke fill markers"
     transform="matrix(22.518903,0,0,22.518903,-727.41142,671.98647)">
    <path
       d="m 39.249513,-20.801066 h -0.658875 q -0.0026,-0.14211 -0.0026,-0.173116 0,-0.320394 0.105937,-0.5271 0.105937,-0.206706 0.423747,-0.465088 0.31781,-0.258383 0.379822,-0.338481 0.0956,-0.126607 0.0956,-0.279053 0,-0.211874 -0.170533,-0.361735 -0.167948,-0.152446 -0.454753,-0.152446 -0.276469,0 -0.462504,0.157613 -0.186035,0.157614 -0.255798,0.480591 l -0.666627,-0.08268 q 0.02842,-0.462504 0.392741,-0.785482 0.366903,-0.322978 0.961183,-0.322978 0.625285,0 0.994772,0.328146 0.369486,0.325561 0.369486,0.759644 0,0.240295 -0.136942,0.454752 -0.134359,0.214458 -0.578777,0.583944 -0.22996,0.191203 -0.286804,0.307475 -0.05426,0.116272 -0.04909,0.415996 z m -0.658875,0.976685 v -0.726054 h 0.726055 v 0.726054 z"
       id="path3678"
       style="fill:#ffffff;fill-opacity:1;stroke:none" />
  </g>
</svg>
