<?xml version="1.0" encoding="UTF-8" standalone="no"?>
<svg
   viewBox="0 0 24 24"
   version="1.1"
   id="svg31079"
   sodipodi:docname="cypress.svg"
   inkscape:version="1.2.1 (9c6d41e4, 2022-07-14)"
   xmlns:inkscape="http://www.inkscape.org/namespaces/inkscape"
   xmlns:sodipodi="http://sodipodi.sourceforge.net/DTD/sodipodi-0.dtd"
   xmlns="http://www.w3.org/2000/svg"
   xmlns:svg="http://www.w3.org/2000/svg">
  <defs
     id="defs31083" />
  <sodipodi:namedview
     id="namedview31081"
     pagecolor="#ffffff"
     bordercolor="#000000"
     borderopacity="0.25"
     inkscape:showpageshadow="2"
     inkscape:pageopacity="0.0"
     inkscape:pagecheckerboard="0"
     inkscape:deskcolor="#d1d1d1"
     showgrid="false"
     inkscape:zoom="9.8333333"
     inkscape:cx="11.949153"
     inkscape:cy="12"
     inkscape:window-width="1309"
     inkscape:window-height="430"
     inkscape:window-x="0"
     inkscape:window-y="38"
     inkscape:window-maximized="0"
     inkscape:current-layer="svg31079" />
  <path
     style="fill:#000000;stroke:#ffe680;stroke-width:0;stroke-linecap:round;stroke-linejoin:round"
     d="M 0.10169491,-0.102 H 24.20339 V 24.10139 H 0.10169491 Z"
     id="path31075" />
  <path
     style="fill:#ffffff;stroke-width:0.864407"
     d="M 11.998,1.627 A 10.366,10.366 0 0 0 1.628,12 10.366,10.366 0 0 0 12,22.373 C 17.734,22.373 22.373,17.733 22.373,12 22.372,6.266 17.695,1.627 11.998,1.627 Z"
     id="path31077" />
  <path
     style="stroke-width:0.864407;fill:#000000"
     d="m 17.506,16.564 c -0.377,1.17 -0.943,2.037 -1.735,2.678 -0.792,0.642 -1.849,0.981 -3.169,1.094 l -0.263,-1.772 c 0.867,-0.114 1.508,-0.302 1.923,-0.605 0.15,-0.112 0.453,-0.452 0.453,-0.452 L 11.585,7.474 h 2.601 l 1.811,7.506 1.924,-7.506 h 2.527 z"
     id="path32660" />
  <path
     style="stroke-width:0.864407;fill:#000000"
     d="m 7.133,14.226 c 0.34,0.452 0.792,0.641 1.433,0.641 0.302,0 0.604,-0.038 0.868,-0.151 0.264,-0.112 0.566,-0.265 0.942,-0.49 l 1.057,1.508 c -0.867,0.718 -1.848,1.057 -2.98,1.057 -0.906,0 -1.66,-0.189 -2.338,-0.566 a 3.797,3.797 0 0 1 -1.51,-1.66 C 4.267,13.848 4.078,13.018 4.078,12.037 c 0,-0.942 0.189,-1.81 0.527,-2.526 A 3.996,3.996 0 0 1 6.116,7.776 c 0.64,-0.415 1.432,-0.604 2.3,-0.604 0.604,0 1.17,0.075 1.623,0.264 a 4.875,4.875 0 0 1 1.395,0.83 L 10.378,9.699 A 4.137,4.137 0 0 0 9.511,9.208 C 9.247,9.096 8.907,9.058 8.605,9.058 c -1.282,0 -1.924,0.98 -1.924,2.978 -0.037,1.02 0.152,1.736 0.453,2.189 z"
     id="path32658" />
</svg>
