<?xml version="1.0" encoding="UTF-8" standalone="no"?>
<svg
   id="Layer_1"
   viewBox="0 0 299.94001 300"
   width="2500"
   height="2500"
   version="1.1"
   sodipodi:docname="figma.svg"
   inkscape:version="1.2.1 (9c6d41e4, 2022-07-14)"
   xmlns:inkscape="http://www.inkscape.org/namespaces/inkscape"
   xmlns:sodipodi="http://sodipodi.sourceforge.net/DTD/sodipodi-0.dtd"
   xmlns="http://www.w3.org/2000/svg"
   xmlns:svg="http://www.w3.org/2000/svg"
   xmlns:rdf="http://www.w3.org/1999/02/22-rdf-syntax-ns#"
   xmlns:cc="http://creativecommons.org/ns#"
   xmlns:dc="http://purl.org/dc/elements/1.1/">
  <defs
     id="defs8004" />
  <sodipodi:namedview
     id="namedview8002"
     pagecolor="#ffffff"
     bordercolor="#000000"
     borderopacity="0.25"
     inkscape:showpageshadow="2"
     inkscape:pageopacity="0.0"
     inkscape:pagecheckerboard="0"
     inkscape:deskcolor="#d1d1d1"
     showgrid="false"
     inkscape:zoom="0.0944"
     inkscape:cx="831.5678"
     inkscape:cy="1250"
     inkscape:window-width="1309"
     inkscape:window-height="430"
     inkscape:window-x="0"
     inkscape:window-y="38"
     inkscape:window-maximized="0"
     inkscape:current-layer="Layer_1" />
  <style
     type="text/css"
     id="style7990">.st0{fill:#0acf83}.st1{fill:#a259ff}.st2{fill:#f24e1e}.st3{fill:#ff7262}.st4{fill:#1abcfe}</style>
  <title
     id="title7992">Figma.logo</title>
  <desc
     id="desc7994">Created using Figma</desc>
  <path
     id="path0_fill"
     class="st0"
     d="m 103.81356,289.83051 c 25.26102,0 45.76272,-20.5017 45.76272,-45.76272 v -45.76271 h -45.76272 c -25.261018,0 -45.762713,20.5017 -45.762713,45.76271 0,25.26102 20.501695,45.76272 45.762713,45.76272 z"
     style="stroke-width:0.915254" />
  <path
     id="path1_fill"
     class="st1"
     d="m 58.050847,152.54237 c 0,-25.26102 20.501695,-45.76271 45.762713,-45.76271 h 45.76272 v 91.52542 h -45.76272 c -25.261018,0 -45.762713,-20.50169 -45.762713,-45.76271 z"
     style="stroke-width:0.915254" />
  <path
     id="path1_fill_1_"
     class="st2"
     d="m 58.050847,61.016949 c 0,-25.261017 20.501695,-45.762712 45.762713,-45.762712 h 45.76272 v 91.525423 h -45.76272 c -25.261018,0 -45.762713,-20.501694 -45.762713,-45.762711 z"
     style="stroke-width:0.915254" />
  <path
     id="path2_fill"
     class="st3"
     d="m 149.57628,15.254237 h 45.76271 c 25.26102,0 45.76271,20.501695 45.76271,45.762712 0,25.261017 -20.50169,45.762711 -45.76271,45.762711 h -45.76271 z"
     style="stroke-width:0.915254" />
  <path
     id="path3_fill"
     class="st4"
     d="m 241.1017,152.54237 c 0,25.26102 -20.50169,45.76271 -45.76271,45.76271 -25.26102,0 -45.76271,-20.50169 -45.76271,-45.76271 0,-25.26102 20.50169,-45.76271 45.76271,-45.76271 25.26102,0 45.76271,20.50169 45.76271,45.76271 z"
     style="stroke-width:0.915254" />
  <metadata
     id="metadata8486">
    <rdf:RDF>
      <cc:Work
         rdf:about="">
        <dc:title>Figma.logo</dc:title>
      </cc:Work>
    </rdf:RDF>
  </metadata>
</svg>
