<?xml version="1.0" encoding="UTF-8" standalone="no"?>
<svg
   height="2500"
   viewBox="8.738 -5.036 17.46 39.406"
   width="2500"
   version="1.1"
   id="svg27943"
   sodipodi:docname="mongodb.svg"
   inkscape:version="1.2.1 (9c6d41e4, 2022-07-14)"
   xmlns:inkscape="http://www.inkscape.org/namespaces/inkscape"
   xmlns:sodipodi="http://sodipodi.sourceforge.net/DTD/sodipodi-0.dtd"
   xmlns="http://www.w3.org/2000/svg"
   xmlns:svg="http://www.w3.org/2000/svg">
  <defs
     id="defs27947" />
  <sodipodi:namedview
     id="namedview27945"
     pagecolor="#ffffff"
     bordercolor="#000000"
     borderopacity="0.25"
     inkscape:showpageshadow="2"
     inkscape:pageopacity="0.0"
     inkscape:pagecheckerboard="0"
     inkscape:deskcolor="#d1d1d1"
     showgrid="false"
     inkscape:zoom="0.0944"
     inkscape:cx="1244.7034"
     inkscape:cy="1250"
     inkscape:window-width="1309"
     inkscape:window-height="430"
     inkscape:window-x="0"
     inkscape:window-y="279"
     inkscape:window-maximized="0"
     inkscape:current-layer="svg27943" />
  <path
     d="m 17.068822,-0.24694915 0.854,1.60399995 c 0.192,0.296 0.4,0.558 0.645,0.802 a 22.406,22.406 0 0 1 2.004,2.266 c 1.447,1.9 2.423,4.01 3.12,6.2920002 0.418,1.394 0.645,2.824 0.662,4.27 0.07,4.323 -1.412,8.035 -4.4,11.12 a 12.7,12.7 0 0 1 -1.57,1.342 c -0.296,0 -0.436,-0.227 -0.558,-0.436 a 3.589,3.589 0 0 1 -0.436,-1.255 c -0.105,-0.523 -0.174,-1.046 -0.14,-1.586 v -0.244 c -0.024,-0.052 -0.285,-24.05200015 -0.181,-24.17500015 z"
     fill="#599636"
     id="path27937" />
  <path
     d="m 17.068822,-0.29994915 c -0.035,-0.07 -0.07,-0.017 -0.105,0.017 0.017,0.35 -0.105,0.662 -0.296,0.96 -0.21,0.296 -0.488,0.52299995 -0.767,0.76699995 -1.55,1.342 -2.77,2.963 -3.747,4.776 -1.3,2.44 -1.97,5.0550002 -2.16,7.8080002 -0.087,0.993 0.314,4.497 0.627,5.508 0.854,2.684 2.388,4.933 4.375,6.885 0.488,0.47 1.01,0.906 1.55,1.325 0.157,0 0.174,-0.14 0.21,-0.244 a 4.78,4.78 0 0 0 0.157,-0.68 l 0.35,-2.614 z"
     fill="#6cac48"
     id="path27939" />
  <path
     d="m 17.922822,28.511051 c 0.035,-0.4 0.227,-0.732 0.436,-1.063 -0.21,-0.087 -0.366,-0.26 -0.488,-0.453 a 3.235,3.235 0 0 1 -0.26,-0.575 c -0.244,-0.732 -0.296,-1.5 -0.366,-2.248 v -0.453 c -0.087,0.07 -0.105,0.662 -0.105,0.75 a 17.37,17.37 0 0 1 -0.314,2.353 c -0.052,0.314 -0.087,0.627 -0.28,0.906 0,0.035 0,0.07 0.017,0.122 0.314,0.924 0.4,1.865 0.453,2.824 v 0.35 c 0,0.418 -0.017,0.33 0.33,0.47 0.14,0.052 0.296,0.07 0.436,0.174 0.105,0 0.122,-0.087 0.122,-0.157 l -0.052,-0.575 v -1.604 c -0.017,-0.28 0.035,-0.558 0.07,-0.82 z"
     fill="#c2bfbf"
     id="path27941" />
</svg>
