<?xml version="1.0" encoding="UTF-8" standalone="no"?>
<svg
   id="Layer_1"
   viewBox="0 0 299.94001 300"
   width="2500"
   height="2500"
   version="1.1"
   sodipodi:docname="mock.svg"
   inkscape:version="1.2.1 (9c6d41e4, 2022-07-14)"
   xmlns:inkscape="http://www.inkscape.org/namespaces/inkscape"
   xmlns:sodipodi="http://sodipodi.sourceforge.net/DTD/sodipodi-0.dtd"
   xmlns="http://www.w3.org/2000/svg"
   xmlns:svg="http://www.w3.org/2000/svg"
   xmlns:rdf="http://www.w3.org/1999/02/22-rdf-syntax-ns#"
   xmlns:cc="http://creativecommons.org/ns#"
   xmlns:dc="http://purl.org/dc/elements/1.1/">
  <defs
     id="defs8004" />
  <sodipodi:namedview
     id="namedview8002"
     pagecolor="#ffffff"
     bordercolor="#000000"
     borderopacity="0.25"
     inkscape:showpageshadow="2"
     inkscape:pageopacity="0.0"
     inkscape:pagecheckerboard="0"
     inkscape:deskcolor="#d1d1d1"
     showgrid="false"
     inkscape:zoom="0.0944"
     inkscape:cx="905.72034"
     inkscape:cy="248.94068"
     inkscape:window-width="1355"
     inkscape:window-height="659"
     inkscape:window-x="0"
     inkscape:window-y="38"
     inkscape:window-maximized="0"
     inkscape:current-layer="Layer_1" />
  <style
     type="text/css"
     id="style7990">.st0{fill:#0acf83}.st1{fill:#a259ff}.st2{fill:#f24e1e}.st3{fill:#ff7262}.st4{fill:#1abcfe}</style>
  <title
     id="title7992">Figma.logo</title>
  <desc
     id="desc7994">Created using Figma</desc>
  <metadata
     id="metadata8486">
    <rdf:RDF>
      <cc:Work
         rdf:about="">
        <dc:title>Figma.logo</dc:title>
      </cc:Work>
    </rdf:RDF>
  </metadata>
  <rect
     style="fill:#ff0000;stroke-width:0.362834;stroke-linecap:round;stroke-linejoin:round;paint-order:stroke fill markers"
     id="rect1689"
     width="301.27118"
     height="300"
     x="-1.3011814"
     y="1.2711865" />
  <g
     aria-label="MOCK"
     id="text1745"
     style="font-weight:bold;font-size:89.3502px;line-height:1.03;font-family:Arial;-inkscape-font-specification:'Arial Bold';text-align:center;text-anchor:middle;fill:#ffff00;stroke-width:13.508;stroke-linecap:round;stroke-linejoin:round;paint-order:stroke fill markers"
     transform="matrix(1,0,0,0.70506483,0,24.860472)">
    <path
       d="M 18.083817,149.3407 V 85.382012 H 37.411032 L 49.016087,129.01004 60.490258,85.382012 H 79.861101 V 149.3407 H 67.863394 V 98.993956 L 55.167639,149.3407 H 42.733651 L 30.081524,98.993956 V 149.3407 Z"
       style="stroke-width:13.5081"
       id="path1853" />
    <path
       d="m 90.07006,117.75401 q 0,-9.77268 2.923078,-16.40414 2.181401,-4.886339 5.933411,-8.769233 3.795641,-3.882895 8.289321,-5.7589 5.97704,-2.530425 13.78646,-2.530425 14.13548,0 22.59932,8.769233 8.50746,8.769235 8.50746,24.388065 0,15.48795 -8.42021,24.25718 -8.42021,8.72561 -22.51206,8.72561 -14.26636,0 -22.686571,-8.68198 -8.420209,-8.7256 -8.420209,-23.99541 z m 13.30655,-0.43628 q 0,10.86338 5.01722,16.49139 5.01722,5.58439 12.73938,5.58439 7.72216,0 12.65213,-5.54076 4.9736,-5.58439 4.9736,-16.70953 0,-10.99427 -4.84271,-16.40414 -4.79909,-5.409878 -12.78302,-5.409878 -7.98392,0 -12.87026,5.497128 -4.88634,5.45351 -4.88634,16.4914 z"
       style="stroke-width:13.5081"
       id="path1855" />
    <path
       d="m 203.11028,125.82519 12.52124,3.97015 q -2.87945,10.47073 -9.59816,15.57521 -6.67509,5.06085 -16.9713,5.06085 -12.73939,0 -20.94146,-8.68198 -8.20207,-8.7256 -8.20207,-23.8209 0,-15.96786 8.2457,-24.780719 8.2457,-8.856489 21.68313,-8.856489 11.73594,0 19.06545,6.936856 4.3628,4.101034 6.5442,11.779562 L 202.674,106.0617 q -1.13433,-4.9736 -4.75545,-7.853048 -3.5775,-2.87945 -8.72561,-2.87945 -7.11137,0 -11.56143,5.104478 -4.40643,5.10448 -4.40643,16.53502 0,12.12859 4.36281,17.2767 4.3628,5.14811 11.34328,5.14811 5.14811,0 8.85649,-3.2721 3.70838,-3.27211 5.32262,-10.29622 z"
       style="stroke-width:13.5081"
       id="path1857" />
    <path
       d="M 226.88755,149.3407 V 85.382012 h 12.9139 v 28.401848 l 26.08956,-28.401848 h 17.36395 l -24.08267,24.911608 25.39151,39.04708 h -16.70953 l -17.5821,-30.01608 -10.47072,10.68886 v 19.32722 z"
       style="stroke-width:13.5081"
       id="path1859" />
  </g>
  <g
     aria-label="EXAM"
     transform="matrix(0.93198357,0,0,0.75652067,0,24.860472)"
     id="text916"
     style="font-weight:bold;font-size:88.1646px;line-height:1.03;font-family:Arial;-inkscape-font-specification:'Arial Bold';text-align:center;text-anchor:middle;fill:#ffff00;stroke-width:23.3255;stroke-linecap:round;stroke-linejoin:round;paint-order:stroke fill markers">
    <path
       d="m 38.520815,223.16649 v -63.11001 h 46.794392 v 10.67618 H 51.263354 v 13.99097 h 31.684152 v 10.63313 H 51.263354 v 17.1766 h 35.257229 v 10.63313 z"
       id="path933"
       style="fill:#ffff00" />
    <path
       d="M 90.911592,223.16649 112.4792,190.23391 92.9349,160.05648 h 14.895 l 12.65644,20.27613 12.39814,-20.27613 h 14.76585 l -19.6304,30.65097 21.56761,32.45904 h -15.36853 l -13.99097,-21.8259 -14.03401,21.8259 z"
       id="path935"
       style="fill:#ffff00" />
    <path
       d="m 213.04194,223.16649 h -13.86181 l -5.51029,-14.33536 h -25.22679 l -5.20894,14.33536 h -13.51742 l 24.58104,-63.11001 h 13.47438 z M 189.58017,198.198 180.88425,174.77928 172.36052,198.198 Z"
       id="path937"
       style="fill:#ffff00" />
    <path
       d="m 219.62846,223.16649 v -63.11001 h 19.07076 l 11.45107,43.04912 11.32192,-43.04912 h 19.11381 v 63.11001 H 268.74751 V 173.4878 l -12.52729,49.67869 h -12.269 L 231.46697,173.4878 v 49.67869 z"
       id="path939"
       style="fill:#ffff00" />
  </g>
</svg>
