<svg xmlns="http://www.w3.org/2000/svg" viewBox="0 0 15 15">
  <rect width="15.127" height="15.127" paint-order="stroke fill markers" rx="0" ry="0" transform="matrix(0 1 1 0 0 0)"/>
  <path fill="#fff" d="m4.78 4.78.367-.266a.453.453 0 0 0-.82.266Zm2.72 8.614A5.894 5.894 0 0 1 1.606 7.5H.699A6.8 6.8 0 0 0 7.5 14.3zM13.394 7.5A5.894 5.894 0 0 1 7.5 13.394v.907A6.8 6.8 0 0 0 14.3 7.5zM7.5 1.606A5.894 5.894 0 0 1 13.394 7.5h.907A6.8 6.8 0 0 0 7.5.7Zm0-.907A6.8 6.8 0 0 0 .7 7.5h.906A5.894 5.894 0 0 1 7.5 1.606ZM5.233 11.581V4.78h-.907v6.8zm-.82-6.536 5.893 8.161.735-.53-5.894-8.162Zm5.354-.719v5.44h.907v-5.44z"/>
</svg>