<?xml version="1.0" encoding="UTF-8" standalone="no"?>
<!-- Uploaded to: SVG Repo, www.svgrepo.com, Generator: SVG Repo Mixer Tools -->

<svg
   fill="#000000"
   width="800px"
   height="800px"
   viewBox="0 -1.5 27 27"
   version="1.1"
   id="svg140"
   sodipodi:docname="reactnative.svg"
   inkscape:version="1.2.1 (9c6d41e4, 2022-07-14)"
   xmlns:inkscape="http://www.inkscape.org/namespaces/inkscape"
   xmlns:sodipodi="http://sodipodi.sourceforge.net/DTD/sodipodi-0.dtd"
   xmlns="http://www.w3.org/2000/svg"
   xmlns:svg="http://www.w3.org/2000/svg">
  <defs
     id="defs144" />
  <sodipodi:namedview
     id="namedview142"
     pagecolor="#ffffff"
     bordercolor="#000000"
     borderopacity="0.25"
     inkscape:showpageshadow="2"
     inkscape:pageopacity="0.0"
     inkscape:pagecheckerboard="0"
     inkscape:deskcolor="#d1d1d1"
     showgrid="false"
     inkscape:zoom="0.295"
     inkscape:cx="394.91525"
     inkscape:cy="400"
     inkscape:window-width="1309"
     inkscape:window-height="430"
     inkscape:window-x="0"
     inkscape:window-y="38"
     inkscape:window-maximized="0"
     inkscape:current-layer="svg140" />
  <rect
     style="fill:#ffffff;stroke-width:0.255118;stroke-linejoin:round;paint-order:stroke fill markers"
     id="rect3389"
     width="27.228813"
     height="27.228813"
     x="0"
     y="-1.3855932" />
  <g
     id="g3387"
     style="fill:#000000"
     transform="matrix(0.94909221,0,0,0.94909221,0.68664431,0.61076624)">
    <path
       d="m 15.902,11.974 c 0,1.331 -1.079,2.41 -2.41,2.41 -1.331,0 -2.41,-1.079 -2.41,-2.41 0,-1.331 1.079,-2.41 2.41,-2.41 1.331,0 2.41,1.079 2.41,2.41 z"
       id="path132"
       style="fill:#000000" />
    <path
       d="m 13.491,17.494 c -0.201,0.005 -0.438,0.008 -0.676,0.008 -2.811,0 -5.522,-0.425 -8.073,-1.214 l 0.193,0.051 C 3.584,15.903 2.413,15.26 1.394,14.436 l 0.021,0.016 C 0.626,13.881 0.095,12.997 0.005,11.985 L 0.004,11.972 c 0,-1.594 1.747,-3.154 4.681,-4.172 2.512,-0.827 5.403,-1.304 8.405,-1.304 0.139,0 0.278,10e-4 0.417,0.003 h -0.021 c 0.116,-0.002 0.252,-0.003 0.389,-0.003 2.965,0 5.82,0.469 8.496,1.337 L 22.176,7.778 c 1.305,0.424 2.438,1.036 3.433,1.814 L 25.585,9.574 c 0.775,0.546 1.298,1.404 1.386,2.387 l 0.001,0.013 c 0,1.656 -1.954,3.332 -5.103,4.374 -2.363,0.729 -5.08,1.149 -7.895,1.149 -0.17,0 -0.339,-0.002 -0.508,-0.005 h 0.025 z m 0,-9.84 C 13.385,7.652 13.259,7.652 13.133,7.652 10.252,7.652 7.477,8.104 4.874,8.941 L 5.065,8.888 c -2.698,0.941 -3.908,2.228 -3.908,3.087 0,0.893 1.301,2.3 4.153,3.274 2.249,0.697 4.834,1.099 7.513,1.099 0.235,0 0.469,-0.003 0.702,-0.009 l -0.034,0.001 c 0.146,0.003 0.318,0.005 0.49,0.005 2.684,0 5.274,-0.4 7.715,-1.143 l -0.187,0.049 c 2.96,-0.984 4.32,-2.391 4.32,-3.28 -0.102,-0.638 -0.462,-1.176 -0.966,-1.515 L 24.855,10.451 C 23.989,9.777 22.979,9.234 21.885,8.877 l -0.07,-0.02 c -2.368,-0.766 -5.093,-1.208 -7.92,-1.208 -0.142,0 -0.283,0.001 -0.424,0.003 h 0.021 z"
       id="path134"
       style="fill:#000000" />
    <path
       d="m 8.023,23.986 c -0.016,0 -0.035,10e-4 -0.053,10e-4 -0.453,0 -0.878,-0.119 -1.245,-0.327 l 0.013,0.007 C 5.36,22.867 4.88,20.575 5.458,17.526 6.155,14.398 7.285,11.632 8.802,9.126 L 8.733,9.25 c 1.499,-2.655 3.31,-4.926 5.425,-6.872 l 0.02,-0.018 c 0.923,-0.844 2.003,-1.537 3.187,-2.028 l 0.073,-0.027 c 0.407,-0.196 0.885,-0.31 1.39,-0.31 0.501,0 0.976,0.113 1.4,0.314 l -0.02,-0.008 c 1.435,0.826 1.911,3.36 1.238,6.606 -0.72,2.967 -1.818,5.58 -3.262,7.959 l 0.07,-0.123 c -1.452,2.63 -3.209,4.882 -5.266,6.819 l -0.014,0.013 c -0.958,0.877 -2.083,1.59 -3.321,2.082 L 9.579,23.683 C 9.119,23.864 8.587,23.975 8.03,23.988 H 8.024 Z M 9.228,9.539 9.727,9.827 c -1.381,2.28 -2.465,4.926 -3.106,7.74 l -0.034,0.18 c -0.533,2.809 -0.019,4.498 0.72,4.926 0.191,0.102 0.417,0.161 0.657,0.161 0.02,0 0.041,0 0.061,-0.001 H 8.022 c 0.955,0 2.458,-0.605 4.196,-2.122 1.976,-1.867 3.654,-4.023 4.972,-6.404 l 0.068,-0.135 c 1.318,-2.156 2.371,-4.653 3.025,-7.307 L 20.321,6.683 C 20.95,3.625 20.407,1.753 19.635,1.305 19.397,1.211 19.121,1.157 18.833,1.157 c -0.364,0 -0.708,0.087 -1.012,0.24 L 17.834,1.391 C 16.716,1.856 15.756,2.477 14.927,3.237 L 14.934,3.231 C 12.893,5.112 11.162,7.288 9.798,9.699 L 9.729,9.831 Z"
       id="path136"
       style="fill:#000000" />
    <path
       d="M 18.96,24 C 17.654,24 16,23.213 14.27,21.724 12.095,19.741 10.253,17.442 8.806,14.89 L 8.734,14.753 C 7.304,12.404 6.183,9.678 5.519,6.778 L 5.483,6.593 C 5.321,5.884 5.228,5.071 5.228,4.236 5.228,3.709 5.265,3.192 5.336,2.685 L 5.329,2.743 C 5.414,1.745 5.937,0.885 6.701,0.344 l 0.01,-0.007 c 1.43,-0.83 3.865,0.024 6.342,2.228 2.022,1.914 3.748,4.113 5.118,6.54 l 0.072,0.138 c 1.428,2.297 2.557,4.961 3.242,7.798 l 0.038,0.186 c 0.163,0.709 0.257,1.524 0.257,2.36 0,0.577 -0.044,1.143 -0.13,1.696 l 0.008,-0.062 c -0.103,1.022 -0.644,1.901 -1.429,2.456 l -0.011,0.007 C 19.87,23.883 19.454,24 19.011,24 18.993,24 18.975,24 18.957,23.999 H 18.96 Z M 9.732,14.177 c 1.458,2.571 3.217,4.771 5.271,6.656 l 0.02,0.018 c 2.166,1.863 3.884,2.266 4.628,1.834 0.773,-0.446 1.339,-2.276 0.754,-5.233 -0.702,-2.89 -1.787,-5.434 -3.219,-7.741 l 0.065,0.112 C 15.872,7.367 14.224,5.261 12.303,3.439 L 12.291,3.428 C 9.957,1.354 8.066,0.888 7.293,1.334 6.82,1.719 6.509,2.286 6.468,2.927 v 0.007 c -0.055,0.39 -0.086,0.84 -0.086,1.298 0,0.757 0.086,1.493 0.248,2.201 L 6.617,6.367 c 0.673,2.952 1.747,5.559 3.182,7.924 L 9.733,14.174 Z"
       id="path138"
       style="fill:#000000" />
  </g>
</svg>
