<?xml version="1.0" encoding="UTF-8" standalone="no"?>
<!-- Uploaded to: SVG Repo, www.svgrepo.com, Generator: SVG Repo Mixer Tools -->

<svg
   width="800px"
   height="800px"
   viewBox="-6.5 0 269 269"
   version="1.1"
   preserveAspectRatio="xMidYMid"
   id="svg11497"
   sodipodi:docname="selenium.svg"
   inkscape:version="1.2.1 (9c6d41e4, 2022-07-14)"
   xmlns:inkscape="http://www.inkscape.org/namespaces/inkscape"
   xmlns:sodipodi="http://sodipodi.sourceforge.net/DTD/sodipodi-0.dtd"
   xmlns="http://www.w3.org/2000/svg"
   xmlns:svg="http://www.w3.org/2000/svg">
  <defs
     id="defs11501" />
  <sodipodi:namedview
     id="namedview11499"
     pagecolor="#ffffff"
     bordercolor="#000000"
     borderopacity="0.25"
     inkscape:showpageshadow="2"
     inkscape:pageopacity="0.0"
     inkscape:pagecheckerboard="0"
     inkscape:deskcolor="#d1d1d1"
     showgrid="false"
     inkscape:zoom="0.49699577"
     inkscape:cx="92.55612"
     inkscape:cy="414.49045"
     inkscape:window-width="1728"
     inkscape:window-height="1080"
     inkscape:window-x="0"
     inkscape:window-y="37"
     inkscape:window-maximized="0"
     inkscape:current-layer="svg11497" />
  <path
     d="m 240.32484,0.00345591 c 0.69325,-0.0416049 1.35102,0.29507114 1.69564,0.86791134 0.34464,0.57284025 0.31608,1.28202035 -0.0736,1.82818325 v 0 L 171.79452,93.211296 c -0.51411,0.551182 -1.25224,0.866711 -2.02752,0.866711 -0.77529,0 -1.5134,-0.315529 -2.02752,-0.866711 v 0 L 143.00367,67.020663 c -0.60415,-0.595681 -1.46031,-0.898713 -2.32755,-0.823829 -0.86724,0.07489 -1.65183,0.51959 -2.13299,1.208985 v 0 l -15.00369,18.10235 c -0.4747,1.019341 -0.31876,2.204261 0.40552,3.081251 v 0 l 44.60553,43.90783 c 0.51411,0.55117 1.25224,0.86671 2.02752,0.86671 0.77529,0 1.5134,-0.31554 2.02752,-0.86671 v 0 l 87.58906,-93.593001 c 0.51712,-0.527895 1.31854,-0.707185 2.02936,-0.454005 0.71081,0.253182 1.1905,0.888779 1.21468,1.609474 v 0 227.627412 c 0.0335,0.51987 -0.16926,1.02844 -0.55701,1.39673 -0.38775,0.36829 -0.92318,0.56092 -1.47052,0.52905 v 0 H -5.4111002 c -0.5473324,0.0319 -1.0827698,-0.16076 -1.470519,-0.52905 -0.3877491,-0.36829 -0.5905629,-0.87686 -0.5570053,-1.39673 v 0 V 1.9292377 c -0.033558,-0.5198669 0.1692562,-1.02843568 0.5570053,-1.39672733 0.3877492,-0.36829164 0.9231866,-0.56092811 1.470519,-0.52905446 v 0 z M 171.38902,153.68084 c -12.07234,-0.20162 -23.70711,4.29126 -32.20649,12.43687 -8.49938,8.1456 -13.12509,19.23638 -12.80455,30.70065 0,26.57578 20.27524,43.52267 46.63306,43.52267 12.20138,0.28839 24.16606,-3.22913 34.06241,-10.01407 0.91738,-0.79121 1.08961,-2.0999 0.4055,-3.08125 v 0 l -7.29908,-10.39922 c -0.82064,-0.89373 -2.21705,-1.05952 -3.24405,-0.38516 -6.34419,4.11522 -13.81105,6.39007 -21.49176,6.54766 -14.19266,0 -23.11377,-8.47344 -24.73579,-18.4875 0.0294,-0.41331 0.37588,-0.74236 0.81101,-0.77032 v 0 h 61.23123 c 1.30541,-0.0838 2.34474,-1.07104 2.43303,-2.31094 v 0 -2.31093 c 0,-26.96095 -17.8422,-45.44846 -43.79452,-45.44846 z M 110.9688,139.0449 c -12.316515,-9.56229 -27.900828,-14.49639 -43.79453,-13.86563 -27.574331,0 -44.605534,15.40626 -44.605534,33.89376 0,41.98205 67.313807,28.50158 67.313807,48.14455 0,6.16251 -6.488078,12.325 -20.275243,12.325 -13.094333,0.10263 -25.727663,-4.58679 -35.278924,-13.09532 -0.570222,-0.50636 -1.342717,-0.75445 -2.119463,-0.68067 -0.776747,0.0738 -1.482222,0.46225 -1.935585,1.06584 v 0 l -10.543127,13.86562 c -0.684108,0.98136 -0.511879,2.29005 0.405505,3.08126 10.948632,9.6289 26.357817,16.17656 47.849574,16.17656 31.629375,0 47.03856,-15.40626 47.84958,-35.43438 0,-41.5969 -67.313814,-29.65704 -67.313814,-47.37424 0,-6.54765 6.082574,-11.16953 16.6257,-11.16953 11.622225,-0.15128 22.941299,3.52314 32.034884,10.39922 0.534614,0.416 1.223251,0.60965 1.910144,0.53716 0.686883,-0.0725 1.313966,-0.405 1.739396,-0.92232 v 0 l 10.54313,-13.48046 c 0.43797,-0.50779 0.64187,-1.16188 0.56554,-1.8143 -0.0763,-0.65241 -0.4264,-1.24803 -0.97104,-1.65212 z m 60.82572,31.58282 c 11.02936,-0.58599 20.55063,7.26308 21.49176,17.7172 -0.0294,0.4133 -0.37587,0.74236 -0.811,0.77031 v 0 h -41.36151 c -0.43512,-0.0279 -0.78157,-0.35701 -0.81101,-0.77031 1.35591,-10.24876 10.61811,-17.88426 21.49176,-17.7172 z"
     fill="#2cb134"
     id="path11493"
     style="stroke-width:1.03125" />
</svg>
