<?xml version="1.0" encoding="UTF-8" standalone="no"?>
<svg
   id="Layer_1"
   viewBox="0 0 299.94001 300"
   width="2500"
   height="2500"
   version="1.1"
   sodipodi:docname="sql.svg"
   inkscape:version="1.2.1 (9c6d41e4, 2022-07-14)"
   xmlns:inkscape="http://www.inkscape.org/namespaces/inkscape"
   xmlns:sodipodi="http://sodipodi.sourceforge.net/DTD/sodipodi-0.dtd"
   xmlns="http://www.w3.org/2000/svg"
   xmlns:svg="http://www.w3.org/2000/svg"
   xmlns:rdf="http://www.w3.org/1999/02/22-rdf-syntax-ns#"
   xmlns:cc="http://creativecommons.org/ns#"
   xmlns:dc="http://purl.org/dc/elements/1.1/">
  <defs
     id="defs8004" />
  <sodipodi:namedview
     id="namedview8002"
     pagecolor="#ffffff"
     bordercolor="#000000"
     borderopacity="0.25"
     inkscape:showpageshadow="2"
     inkscape:pageopacity="0.0"
     inkscape:pagecheckerboard="0"
     inkscape:deskcolor="#d1d1d1"
     showgrid="false"
     inkscape:zoom="0.0944"
     inkscape:cx="895.12712"
     inkscape:cy="238.34746"
     inkscape:window-width="1355"
     inkscape:window-height="659"
     inkscape:window-x="0"
     inkscape:window-y="38"
     inkscape:window-maximized="0"
     inkscape:current-layer="Layer_1" />
  <style
     type="text/css"
     id="style7990">.st0{fill:#0acf83}.st1{fill:#a259ff}.st2{fill:#f24e1e}.st3{fill:#ff7262}.st4{fill:#1abcfe}</style>
  <title
     id="title7992">Figma.logo</title>
  <desc
     id="desc7994">Created using Figma</desc>
  <metadata
     id="metadata8486">
    <rdf:RDF>
      <cc:Work
         rdf:about="">
        <dc:title>Figma.logo</dc:title>
      </cc:Work>
    </rdf:RDF>
  </metadata>
  <g
     aria-label="SQL"
     transform="scale(0.82091137,1.2181583)"
     id="text2397"
     style="font-weight:bold;font-size:160.222px;line-height:1.03;font-family:'Arial Narrow';-inkscape-font-specification:'Arial Narrow Bold';text-align:center;text-anchor:middle;fill:#ff0000;stroke-width:60.5565;stroke-linejoin:round;paint-order:stroke fill markers">
    <path
       d="m 91.111825,94.534724 q -3.044218,-3.845328 -8.331544,-5.60777 -5.127104,-1.922664 -9.773542,-1.922664 -2.723774,0 -5.60777,0.640888 -2.883996,0.640888 -5.447548,2.082886 -2.563552,1.281776 -4.165772,3.524884 -1.60222,2.243108 -1.60222,5.447548 0,5.127104 3.845328,7.850874 3.845328,2.72378 9.61332,4.64644 5.928214,1.92267 12.657538,3.84533 6.729324,1.92266 12.497316,5.44755 5.928219,3.52488 9.773539,9.4531 3.84533,5.92821 3.84533,15.86197 0,9.4531 -3.52488,16.50287 -3.52489,7.04977 -9.613323,11.69621 -5.928214,4.64643 -13.939314,6.88954 -7.850878,2.24311 -16.663088,2.24311 -11.055318,0 -20.508416,-3.36466 -9.453098,-3.36466 -17.62442,-10.8951 l 17.784642,-19.54708 q 3.845328,5.1271 9.61332,8.0111 5.928214,2.72377 12.176872,2.72377 3.044218,0 6.088436,-0.64089 3.20444,-0.80111 5.60777,-2.2431 2.563552,-1.442 4.00555,-3.68511 1.60222,-2.24311 1.60222,-5.28733 0,-5.1271 -4.00555,-8.0111 -3.845328,-3.04421 -9.773542,-5.1271 -5.928214,-2.08289 -12.81776,-4.16577 -6.889546,-2.08289 -12.81776,-5.60777 -5.928214,-3.52489 -9.933764,-9.29288 -3.845328,-5.76799 -3.845328,-15.22109 0,-9.132652 3.524884,-16.022198 3.685106,-6.889546 9.61332,-11.535984 6.088436,-4.646438 13.939314,-6.889546 7.850878,-2.40333 16.182422,-2.40333 9.61332,0 18.585752,2.723774 8.972433,2.723774 16.182423,9.132654 z"
       style="font-family:Avenir;-inkscape-font-specification:'Avenir Bold'"
       id="path2617" />
    <path
       d="m 251.17351,180.25349 h -68.73524 q -13.29843,0 -24.67419,-3.84532 -11.21554,-4.00555 -19.38686,-11.53599 -8.17132,-7.53043 -12.81776,-18.26531 -4.64644,-10.73487 -4.64644,-24.51396 0,-12.81776 4.64644,-23.552636 4.80666,-10.734874 12.97798,-18.42553 8.17132,-7.690656 19.22664,-11.856428 11.05532,-4.325994 23.71286,-4.325994 12.65753,0 23.71285,4.325994 11.05532,4.325994 19.22664,12.01665 8.17132,7.690656 12.81776,18.42553 4.80666,10.574654 4.80666,23.392414 0,6.08843 -1.442,11.85643 -1.28177,5.76799 -4.00555,10.89509 -2.72377,5.12711 -7.04976,9.29288 -4.326,4.00555 -10.09399,6.5691 v 0.32044 h 31.72396 z M 146.86898,122.09291 q 0,7.37021 2.72378,13.77909 2.72377,6.40888 7.37021,11.21554 4.80666,4.64644 11.05532,7.37021 6.24866,2.72378 13.45865,2.72378 7.20999,0 13.45864,-2.72378 6.24866,-2.72377 10.8951,-7.37021 4.80666,-4.80666 7.53043,-11.21554 2.72378,-6.40888 2.72378,-13.77909 0,-7.37021 -2.72378,-13.77909 -2.72377,-6.40888 -7.53043,-11.055322 -4.64644,-4.80666 -10.8951,-7.530434 -6.24865,-2.723774 -13.45864,-2.723774 -7.20999,0 -13.45865,2.723774 -6.24866,2.723774 -11.05532,7.530434 -4.64644,4.646442 -7.37021,11.055322 -2.72378,6.40888 -2.72378,13.77909 z"
       style="font-family:Avenir;-inkscape-font-specification:'Avenir Bold'"
       id="path2619" />
    <path
       d="m 264.47182,66.816318 h 24.99463 v 90.365212 h 46.30416 v 23.07196 h -71.29879 z"
       style="font-family:Avenir;-inkscape-font-specification:'Avenir Bold'"
       id="path2621" />
  </g>
</svg>
