<svg xmlns="http://www.w3.org/2000/svg" xml:space="preserve" viewBox="0 0 153 153">
  <path fill="#4fcc5c" d="M-.027-.027h153.218v153.218H-.027Z"/>
    <path fill="#fff" d="M18.04 74.551a60.485 60.485 0 0 0 8.092 30.295l-8.6 31.402 32.135-8.426a60.602 60.602 0 0 0 28.967 7.376h.027c33.407 0 60.602-27.186 60.616-60.6.007-16.191-6.293-31.416-17.74-42.87-11.443-11.454-26.663-17.765-42.879-17.773-33.411 0-60.605 27.184-60.618 60.596"/>
    <path fill="#4fcc5c" d="M27.2 74.638a51.303 51.303 0 0 0 6.864 25.696L26.77 126.97l27.257-7.147a51.402 51.402 0 0 0 24.57 6.256h.022c28.336 0 51.402-23.059 51.414-51.4.006-13.733-5.338-26.647-15.046-36.362C105.28 28.6 92.37 23.248 78.616 23.24c-28.34 0-51.404 23.057-51.416 51.397"/>
    <path fill="#fff" fill-rule="evenodd" d="M62.975 48.29c-1.176-2.613-2.413-2.666-3.53-2.711-.915-.04-1.962-.037-3.008-.037s-2.746.393-4.183 1.963c-1.439 1.57-5.492 5.365-5.492 13.084 0 7.72 5.623 15.18 6.406 16.227.785 1.047 10.855 17.393 26.802 23.682 13.254 5.227 15.95 4.187 18.827 3.926 2.877-.262 9.283-3.795 10.59-7.459 1.308-3.663 1.308-6.803.916-7.459-.393-.654-1.439-1.046-3.008-1.83-1.569-.785-9.282-4.582-10.72-5.105-1.44-.523-2.485-.784-3.531.787-1.046 1.569-4.051 5.102-4.967 6.148-.915 1.049-1.83 1.18-3.4.395-1.569-.787-6.622-2.442-12.617-7.787-4.664-4.158-7.812-9.294-8.728-10.865-.915-1.57-.098-2.42.689-3.201.704-.703 1.57-1.831 2.354-2.748.783-.916 1.044-1.57 1.567-2.616.523-1.048.262-1.964-.13-2.748-.393-.785-3.442-8.544-4.837-11.646"/>
</svg>